<?xml version="1.0" encoding="UTF-8"?>
<svg width="40px" height="40px" viewBox="0 0 40 40" version="1.1" xmlns="http://www.w3.org/2000/svg" xmlns:xlink="http://www.w3.org/1999/xlink">
    <title>accept-offer</title>
    <g id="accept-offer" stroke="none" stroke-width="1" fill="none" fill-rule="evenodd">
        <line x1="27.4249493" y1="25.1361922" x2="23.8226683" y2="22.1844793" id="Shape" stroke="#78BE20" stroke-width="1.5"></line>
        <line x1="24.1145042" y1="26.9254024" x2="21.1778108" y2="24.5803768" id="Shape" stroke="#78BE20" stroke-width="1.5"></line>
        <path d="M8.08051852,20.729546 C9.12557699,23.6602537 17.5415524,30.0049511 17.5415524,30.0049511 C19.5711154,31.6806024 21.4057288,29.123064 19.7371339,27.7452588 L18.4577657,26.5338537" id="Shape" stroke="#78BE20" stroke-width="1.5"></path>
        <path d="M18.4575975,26.5338537 L21.9379298,29.4822845 C23.9400754,31.1354537 25.7688016,28.2912281 24.1145042,26.9254024 L25.1166703,27.7971152 C26.8666765,29.2420383 29.1702457,26.5771768 27.4249493,25.1361922 L27.5605226,25.2481101 C29.3110334,26.6933614 31.614098,24.0281716 29.8686334,22.587187 L21.2535031,15.7339358 C21.2535031,15.7339358 19.5914683,16.3553922 18.9487565,16.1761922 C18.9487565,16.1761922 16.4682354,19.887864 14.6546478,18.5978537 C12.8410601,17.3078434 14.6544795,11.8153306 19.7524406,11.0305922 C19.7524406,11.0305922 22.0467585,10.3923973 27.665819,13.2177511 L29.7488713,12.6023665" id="Shape" stroke="#78BE20" stroke-width="1.5"></path>
        <polygon id="Rectangle-path" stroke="#78BE20" stroke-width="1.5" transform="translate(5.843754, 17.073658) rotate(195.812395) translate(-5.843754, -17.073658) " points="2.71819425 10.6713571 9.05335013 10.630773 8.96931325 23.4759592 2.63415738 23.5165432"></polygon>
        <polygon id="Rectangle-path" stroke="#78BE20" stroke-width="1.5" transform="translate(34.568075, 17.403201) rotate(-15.812395) translate(-34.568075, -17.403201) " points="31.3584782 10.9603155 37.6936341 11.0008995 37.777671 23.8460857 31.4425151 23.8055016"></polygon>
        <path d="M10.445819,12.5805409 C10.445819,12.5805409 10.7416919,12.0563973 17.2184303,11.9192075" id="Shape" stroke="#78BE20" stroke-width="1.5"></path>
        <path d="M30.4243831,23.4628383 C30.4243831,23.4628383 32.0297329,23.868664 32.8721042,22.929505" id="Shape" stroke="#78BE20" stroke-width="1.5"></path>
    </g>
</svg>