<?xml version="1.0" encoding="UTF-8"?>
<svg width="31px" height="31px" viewBox="0 0 31 31" version="1.1" xmlns="http://www.w3.org/2000/svg" xmlns:xlink="http://www.w3.org/1999/xlink">
    <title>car-loan-full</title>
    <g id="car-loan-full" stroke="none" stroke-width="1" fill="none" fill-rule="evenodd">
        <g id="Group">
            <path d="M5.09888,13.382272 L1.651712,13.382272 C1.235072,13.382272 0.89728,13.719808 0.89728,14.13696 L0.89728,15.064448 C0.89728,15.872512 1.842688,15.851776 2.677248,15.994368 C2.353408,16.627456 1.789184,22.092416 1.789184,22.092416 L1.789184,28.773632 C1.789184,29.516928 2.391936,30.119552 3.135616,30.119552 L5.190656,30.119552 C5.934336,30.119552 6.537088,29.517056 6.537088,28.773632 L6.537088,26.265472 L24.204928,26.265472 L24.204928,28.773632 C24.204928,29.516928 24.80768,30.119552 25.55136,30.119552 L27.6064,30.119552 C28.349952,30.119552 28.952832,29.517056 28.952832,28.773632 L28.952832,22.092416 C28.952832,22.092416 28.387712,16.62464 28.062592,15.990528 C28.884992,15.849984 29.820288,15.874432 29.820288,15.06432 L29.820288,14.136832 C29.820288,13.71968 29.482496,13.382144 29.065856,13.382144 L25.643136,13.382144" id="Shape" stroke="#78BE20" stroke-width="1.5"></path>
            <path d="M25.64288,13.295872 C25.64288,14.786176 23.940224,15.994368 22.332416,15.994368 L8.409344,15.994368 C6.801536,15.994368 5.09888,14.786304 5.09888,13.295872 L6.42688,8.394624 C6.702592,7.018112 7.730432,5.695744 9.338496,5.695744 L21.40352,5.695744 C23.011328,5.695744 24.039168,6.980096 24.314752,8.394624 L25.64288,13.295872 L25.64288,13.295872 Z" id="Shape" stroke="#78BE20" stroke-width="1.5"></path>
            <line x1="12.18304" y1="21.12128" x2="18.55872" y2="21.12128" id="Shape" stroke="#78BE20" stroke-width="1.5"></line>
            <line x1="12.18304" y1="23.681536" x2="18.55872" y2="23.681536" id="Shape" stroke="#78BE20" stroke-width="1.5"></line>
            <circle id="Oval" stroke="#78BE20" stroke-width="1.5" cx="7.688576" cy="21.800704" r="1.988992"></circle>
            <circle id="Oval" stroke="#78BE20" stroke-width="1.5" cx="23.053184" cy="21.800704" r="1.98912"></circle>
            <line x1="13.713536" y1="8.256" x2="17.035776" y2="8.256" id="Shape" stroke="#78BE20" stroke-width="1.5"></line>
            <line x1="28.952576" y1="26.265472" x2="1.789184" y2="26.265472" id="Shape" stroke="#78BE20" stroke-width="1.5"></line>
            <polygon id="Rectangle-path" points="1.42108547e-14 1.36142139e-14 30.72 1.36142139e-14 30.72 30.72 1.42108547e-14 30.72"></polygon>
        </g>
    </g>
</svg>