<?xml version="1.0" encoding="UTF-8"?>
<svg width="32px" height="32px" viewBox="0 0 32 32" version="1.1" xmlns="http://www.w3.org/2000/svg" xmlns:xlink="http://www.w3.org/1999/xlink">
    <title>Icons/Visual Icons/ Cup Place Winner Award Prize Achievement</title>
    <g id="Icons/Visual-Icons/-Cup-Place-Winner-Award-Prize-Achievement" stroke="none" stroke-width="1" fill="none" fill-rule="evenodd">
        <g id="thin-0658_cup_place_winner_award_prize_achievement" transform="translate(2.000000, 2.000000)" stroke="#78BE20" stroke-width="1.5">
            <g id="Group" transform="translate(0.200000, 0.200000)">
                <polygon id="Shape" points="17.87148 28.1838 8.59584 28.1838 9.36744 25.41 17.09988 25.41"></polygon>
                <path d="M5.51028,13.9962 C3.40188,14.5572 1.10592,12.81012 0.38316,10.09404 C-0.33948,7.37844 0.78396,4.722 2.892,4.16088 C3.46656,4.008 4.05492,4.02636 4.62168,4.18908" id="Shape"></path>
                <path d="M20.9574,13.9962 C23.0658,14.5572 25.36164,12.81012 26.08452,10.09404 C26.80716,7.37832 25.68372,4.72188 23.5758,4.16076 C22.99404,4.00596 22.39812,4.02684 21.82488,4.1952" id="Shape"></path>
                <path d="M20.91432,0.612 L5.55336,0.612 C5.05416,0.612 4.6494,1.01664 4.6494,1.51596 L4.6494,9.9 C4.6494,15.02148 8.5002,19.188 13.2336,19.188 C17.96724,19.188 21.81816,15.02148 21.81816,9.9 L21.81816,1.51584 C21.81828,1.01664 21.41352,0.612 20.91432,0.612 L20.91432,0.612 Z" id="Shape"></path>
                <path d="M14.44596,7.47768 C13.0494,3.50112 13.3836,3.59604 12.0198,7.47768 C7.75416,7.56312 7.96728,7.29 11.26824,9.7668 C10.03488,13.8 9.82704,13.52412 13.233,11.1792 C16.72968,13.58628 16.40052,13.69764 15.19728,9.7668 C18.5964,7.2168 18.58752,7.5606 14.44596,7.47768 L14.44596,7.47768 Z" id="Shape"></path>
                <line x1="12.06672" y1="25.43712" x2="12.06672" y2="21.2952" id="Shape"></line>
                <line x1="14.40096" y1="25.43712" x2="14.40096" y2="21.2952" id="Shape"></line>
            </g>
        </g>
    </g>
</svg>