<?xml version="1.0" encoding="UTF-8"?>
<svg width="22px" height="22px" viewBox="0 0 22 22" version="1.1" xmlns="http://www.w3.org/2000/svg" xmlns:xlink="http://www.w3.org/1999/xlink">
    <title>facebook-hover</title>
    <g id="Page-3" stroke="none" stroke-width="1" fill="none" fill-rule="evenodd">
        <g id="facebook-hover" fill="#17252E" fill-rule="nonzero">
            <path d="M12.1785714,19 L9.35714286,19 L9.35714286,11.713615 L7,11.713615 L7,8.85915493 L9.35714286,8.85915493 L9.35714286,6.75586854 C9.35714286,5.5539846 9.67856821,4.62754629 10.3214286,3.97652582 C10.9642889,3.32550535 11.8214232,3 12.8928571,3 C13.7500043,3 14.4523782,3.03755831 15,3.11267606 L15,5.62910798 L13.5357143,5.66666667 C13.0119021,5.66666667 12.6547629,5.7793416 12.4642857,6.00469484 C12.2738086,6.23004808 12.1785714,6.56807286 12.1785714,7.01877934 L12.1785714,8.85915493 L14.8928571,8.85915493 L14.5357143,11.713615 L12.1785714,11.713615 L12.1785714,19 Z" id="facebook"></path>
        </g>
    </g>
</svg>