<?xml version="1.0" encoding="UTF-8"?>
<svg width="40px" height="40px" viewBox="0 0 40 40" version="1.1" xmlns="http://www.w3.org/2000/svg" xmlns:xlink="http://www.w3.org/1999/xlink">
    <title>flexible-repayment</title>
    <g id="flexible-repayment" stroke="none" stroke-width="1" fill="none" fill-rule="evenodd">
        <path d="M21.5745464,13.3892 C22.4766797,14.0217333 24.0601464,15.6057333 24.6750797,17.1005333 C25.6581464,19.4902667 25.5169464,22.0905333 22.654013,20.8585333 C22.4141464,20.7553333 22.2230797,20.5596 22.138013,20.3126667 L20.3838797,15.2192 C19.654413,13.0122667 16.3465464,14.1081333 17.105213,16.4033333 L19.6097464,23.9812 C20.0077464,25.1854667 22.0178797,28.5261333 24.7213464,31.3594667" id="Shape" stroke="#5FA317" stroke-width="1.5"></path>
        <polyline id="Shape" stroke="#5FA317" stroke-width="1.5" points="21.71 27.5754667 21.71 29.0394667 7.0096 29.06 7 5.0204 21.7632 5 21.7345333 20.0154667"></polyline>
        <path d="M17.8393333,29.0449333 C17.8369333,27.4008 18.942,25.9928 20.4136,25.4161333" id="Shape" stroke="#5FA317" stroke-width="1.5"></path>
        <path d="M21.6982667,9.1088 C19.5176,9.07066667 17.6686667,7.31186667 17.6686667,5.01506667" id="Shape" stroke="#5FA317" stroke-width="1.5"></path>
        <path d="M10.8989333,5.01506667 C10.9437333,7.03106667 9.2112,8.89066667 7.03053333,8.85266667" id="Shape" stroke="#5FA317" stroke-width="1.5"></path>
        <path d="M7.054,25.1578667 C9.24706667,25.1548 11.0273333,26.8993333 11.0305333,29.0544" id="Shape" stroke="#5FA317" stroke-width="1.5"></path>
        <polygon id="Rectangle-path" stroke="#5FA317" stroke-width="1.5" transform="translate(28.293370, 30.717434) rotate(235.408850) translate(-28.293370, -30.717434) " points="25.7473776 25.9522397 30.8393621 25.9522397 30.8393621 35.4826277 25.7473776 35.4826277"></polygon>
        <path d="M21.7632,10.0197333 C23.5482667,10.7656 29.066,13.6214667 29.0185333,19.8132 C28.9621333,27.1621333 29.4042667,26.8572 29.4042667,26.8572" id="Shape" stroke="#5FA317" stroke-width="1.5"></path>
        <path d="M17.0316,15.7237333 C16.7402667,15.4602667 16.4201333,15.3030667 16.02,15.3030667 C15.0757333,15.3030667 14.6086667,16.2378667 14.3102667,17.2585333 C13.9788,18.3164 13.5448,19.214 12.6005333,19.214 C11.6562667,19.214 10.8909333,18.3384 10.8909333,17.2585333 C10.8909333,16.5313333 11.238,15.8969333 11.7529333,15.56" id="Shape" stroke="#5FA317" stroke-width="1.5"></path>
        <line x1="9.1124" y1="17.2585333" x2="16.8124" y2="17.2585333" id="Shape" stroke="#5FA317" stroke-width="1.5"></line>
    </g>
</svg>