<?xml version="1.0" encoding="UTF-8"?>
<svg width="31px" height="31px" viewBox="0 0 31 31" version="1.1" xmlns="http://www.w3.org/2000/svg" xmlns:xlink="http://www.w3.org/1999/xlink">
    <title>home-improvement-full-2</title>
    <g id="home-improvement-full-2" stroke="none" stroke-width="1" fill="none" fill-rule="evenodd">
        <g id="Group" transform="translate(0.000000, 0.000000)">
            <polygon id="Shape" stroke="#78BE20" stroke-width="1.5" points="27.3616492 14.7415303 13.3719056 9.53645538 13.3719056 30.3014318 27.3616492 30.3014318"></polygon>
            <polygon id="Rectangle-path" stroke="#78BE20" stroke-width="1.5" points="17.1872903 25.2142523 19.73088 25.2142523 19.73088 30.3014318 17.1872903 30.3014318"></polygon>
            <polygon id="Rectangle-path" stroke="#78BE20" stroke-width="1.5" points="5.74113641 25.2142523 10.8283159 25.2142523 10.8283159 30.3014318 5.74113641 30.3014318"></polygon>
            <polygon id="Shape" stroke="#78BE20" stroke-width="1.5" points="13.3719056 16.9412267 3.19754667 19.5726974 3.19754667 30.3014318 13.3719056 30.3014318"></polygon>
            <line x1="17.1872903" y1="21.3986133" x2="18.5086851" y2="21.3986133" id="Shape" stroke="#78BE20" stroke-width="1.5"></line>
            <polyline id="Shape" stroke="#78BE20" stroke-width="1.5" points="17.1872903 17.5829744 17.1872903 17.5829744 18.5086851 17.5829744"></polyline>
            <polyline id="Shape" stroke="#78BE20" stroke-width="1.5" points="22.2747241 21.3986133 22.2747241 21.3986133 23.546519 21.3986133"></polyline>
            <polyline id="Shape" stroke="#78BE20" stroke-width="1.5" points="22.2747241 25.2142523 22.2747241 25.2142523 23.546519 25.2142523"></polyline>
            <polyline id="Shape" stroke="#78BE20" stroke-width="1.5" points="22.2747241 17.5829744 22.2747241 17.5829744 23.546519 17.5829744"></polyline>
            <line x1="11.2364349" y1="8.74196513" x2="29.8335097" y2="15.6611651" id="Shape" stroke="#78BE20" stroke-width="1.5"></line>
            <line x1="13.3719056" y1="16.9412267" x2="0.700758974" y2="20.2183877" id="Shape" stroke="#78BE20" stroke-width="1.5"></line>
            <polygon id="Rectangle-path" points="-5.68434189e-13 0.369230769 30.72 0.369230769 30.72 31.0892308 -5.68434189e-13 31.0892308"></polygon>
        </g>
        <polygon id="Shape" stroke="#78BE20" stroke-width="1.5" points="27.3616492 14.7415303 13.3719056 9.53645538 13.3719056 30.3014318 27.3616492 30.3014318"></polygon>
        <polygon id="Rectangle-path" stroke="#78BE20" stroke-width="1.5" points="17.1872903 25.2142523 19.73088 25.2142523 19.73088 30.3014318 17.1872903 30.3014318"></polygon>
        <polygon id="Rectangle-path" stroke="#78BE20" stroke-width="1.5" points="5.74113641 25.2142523 10.8283159 25.2142523 10.8283159 30.3014318 5.74113641 30.3014318"></polygon>
        <polygon id="Shape" stroke="#78BE20" stroke-width="1.5" points="13.3719056 16.9412267 3.19754667 19.5726974 3.19754667 30.3014318 13.3719056 30.3014318"></polygon>
        <line x1="17.1872903" y1="21.3986133" x2="18.5086851" y2="21.3986133" id="Shape" stroke="#78BE20" stroke-width="1.5"></line>
        <polyline id="Shape" stroke="#78BE20" stroke-width="1.5" points="17.1872903 17.5829744 17.1872903 17.5829744 18.5086851 17.5829744"></polyline>
        <polyline id="Shape" stroke="#78BE20" stroke-width="1.5" points="22.2747241 21.3986133 22.2747241 21.3986133 23.546519 21.3986133"></polyline>
        <polyline id="Shape" stroke="#78BE20" stroke-width="1.5" points="22.2747241 25.2142523 22.2747241 25.2142523 23.546519 25.2142523"></polyline>
        <polyline id="Shape" stroke="#78BE20" stroke-width="1.5" points="22.2747241 17.5829744 22.2747241 17.5829744 23.546519 17.5829744"></polyline>
        <line x1="11.2364349" y1="8.74196513" x2="29.8335097" y2="15.6611651" id="Shape" stroke="#78BE20" stroke-width="1.5"></line>
        <line x1="13.3719056" y1="16.9412267" x2="0.700758974" y2="20.2183877" id="Shape" stroke="#78BE20" stroke-width="1.5"></line>
        <polygon id="Rectangle-path" points="1.42108547e-14 0.369230769 30.72 0.369230769 30.72 31.0892308 1.42108547e-14 31.0892308"></polygon>
    </g>
</svg>