<?xml version="1.0" encoding="UTF-8"?>
<svg width="32px" height="30px" viewBox="0 0 32 30" version="1.1" xmlns="http://www.w3.org/2000/svg" xmlns:xlink="http://www.w3.org/1999/xlink">
    <title>icon-image</title>
    <g id="Icons-/-Visual-Icons" stroke="none" stroke-width="1" fill="none" fill-rule="evenodd">
        <g id="Icons/Visual-Icons/Home-House-Simple" transform="translate(0.000000, -2.000000)" stroke="#78BE20" stroke-width="1.5">
            <g id="thin-0045_home_house" transform="translate(1.000000, 3.000000)">
                <path d="M16.061,0.388375 L28.775,11.401625 C29.4325,11.97025 29.514375,12.978 28.9575,13.65075 C28.401125,14.3235 26.898,13.661125 26.898,13.661125 L26.898,26.345125 C26.898,26.895875 26.462,27.342 25.923125,27.342 L18.264625,27.342 L18.264625,16.391625 L11.8015,16.391625 L11.8015,27.342 L4.143,27.342 C3.604125,27.342 3.168125,26.895875 3.168125,26.345125 L3.168125,13.661125 C3.168125,13.661125 1.665,14.323375 1.108625,13.65075 C0.55175,12.978125 0.633625,11.97025 1.291125,11.401625 L14.005,0.388375 C14.587375,-0.1155 15.43975,-0.1155 16.022,0.388375 L16.061,0.388375 L16.061,0.388375 Z" id="Shape"></path>
            </g>
        </g>
    </g>
</svg>