<?xml version="1.0" encoding="UTF-8"?>
<svg width="40px" height="40px" viewBox="0 0 40 40" version="1.1" xmlns="http://www.w3.org/2000/svg" xmlns:xlink="http://www.w3.org/1999/xlink">
    <title>income</title>
    <defs>
        <filter id="filter-1">
            <feColorMatrix in="SourceGraphic" type="matrix" values="0 0 0 0 0.470588 0 0 0 0 0.745098 0 0 0 0 0.125490 0 0 0 1.000000 0"></feColorMatrix>
        </filter>
    </defs>
    <g id="income" stroke="none" stroke-width="1" fill="none" fill-rule="evenodd">
        <g filter="url(#filter-1)" id="Group-2">
            <g transform="translate(5.000000, 5.000000)">
                <path d="M15.7904,10.6590667 C13.0032,10.4829333 10.7385333,8.16653333 10.7385333,5.33493333 C10.7385333,2.38853333 13.1270667,1.9658349e-13 16.0734667,1.9658349e-13 C19.0198667,1.9658349e-13 21.4084,2.38853333 21.4084,5.33493333 C21.4084,6.5624 20.9938667,7.76826667 20.2972,8.66973333" id="Shape" stroke="#5FA317" stroke-width="1.5"></path>
                <circle id="Oval" stroke="#5FA317" stroke-width="1.5" cx="19.9550667" cy="13.9932" r="5.33493333"></circle>
                <path d="M5.35813333,22.5446667 C9.0172,21.95 12.7270667,22.1809333 13.8958667,22.5238667 L21.2697333,24.6877333 C23.3728,25.3046667 22.4414667,28.4970667 20.3390667,27.8796 L12.592,25.6061333" id="Shape" stroke="#5FA317" stroke-width="1.5"></path>
                <path d="M22.3229333,25.6176 L28.0682667,22.9985333 C30.1529333,22.0482667 31.4646667,25.1033333 29.4909333,26.0029333 L21.6892,29.5593333 C20.3557333,30.1672 15.0588,30.6085333 9.17946667,27.9802667 C8.1692,27.5288 6.4532,28.1152 5.35826667,28.3961333" id="Shape" stroke="#5FA317" stroke-width="1.5"></path>
                <polygon id="Rectangle-path" stroke="#5FA317" stroke-width="1.5" points="3.09530179e-13 20.9948 5.33333333 20.9948 5.33333333 30.3281333 3.09530179e-13 30.3281333"></polygon>
                <path d="M18.0709333,16.0544 C18.5769333,16.4948 19.3573333,16.8256 19.9205333,16.8256 C20.8217333,16.8256 21.5524,16.1868 21.5524,15.3989333 C21.5524,14.6109333 20.7722667,14.2212 19.9205333,13.9722667 C19.0377333,13.6956 18.2886667,13.3334667 18.2886667,12.5456 C18.2886667,11.7577333 19.0192,11.1189333 19.9205333,11.1189333 C20.5273333,11.1189333 21.0568,11.4085333 21.338,11.8382667" id="Shape" stroke="#5FA317" stroke-width="1.5"></path>
                <line x1="19.9205333" y1="10.3390667" x2="19.9205333" y2="11.1186667" id="Shape" stroke="#5FA317" stroke-width="1.5"></line>
                <line x1="19.9205333" y1="16.8256" x2="19.9205333" y2="17.6052" id="Shape" stroke="#5FA317" stroke-width="1.5"></line>
                <path d="M14.5484,7.1208 C14.9822667,7.4984 15.6512,7.782 16.1341333,7.782 C16.9068,7.782 17.5330667,7.2344 17.5330667,6.5588 C17.5330667,5.8832 16.8642667,5.54906667 16.1341333,5.3356 C15.3773333,5.0984 14.7352,4.788 14.7352,4.1124 C14.7352,3.4368 15.3616,2.8892 16.1341333,2.8892 C16.6544,2.8892 17.1082667,3.13746667 17.3493333,3.50586667" id="Shape" stroke="#5FA317" stroke-width="1.5"></path>
                <line x1="16.134" y1="2.22106667" x2="16.134" y2="2.88946667" id="Shape" stroke="#5FA317" stroke-width="1.5"></line>
                <line x1="16.134" y1="7.782" x2="16.134" y2="8.4504" id="Shape" stroke="#5FA317" stroke-width="1.5"></line>
            </g>
        </g>
        <path d="M20.7904,15.6590667 C18.0032,15.4829333 15.7385333,13.1665333 15.7385333,10.3349333 C15.7385333,7.38853333 18.1270667,5 21.0734667,5 C24.0198667,5 26.4084,7.38853333 26.4084,10.3349333 C26.4084,11.5624 25.9938667,12.7682667 25.2972,13.6697333" id="Shape" stroke="#5FA317" stroke-width="1.5"></path>
        <circle id="Oval" stroke="#5FA317" stroke-width="1.5" cx="24.9550667" cy="18.9932" r="5.33493333"></circle>
        <path d="M10.3581333,27.5446667 C14.0172,26.95 17.7270667,27.1809333 18.8958667,27.5238667 L26.2697333,29.6877333 C28.3728,30.3046667 27.4414667,33.4970667 25.3390667,32.8796 L17.592,30.6061333" id="Shape" stroke="#5FA317" stroke-width="1.5"></path>
        <path d="M27.3229333,30.6176 L33.0682667,27.9985333 C35.1529333,27.0482667 36.4646667,30.1033333 34.4909333,31.0029333 L26.6892,34.5593333 C25.3557333,35.1672 20.0588,35.6085333 14.1794667,32.9802667 C13.1692,32.5288 11.4532,33.1152 10.3582667,33.3961333" id="Shape" stroke="#5FA317" stroke-width="1.5"></path>
        <polygon id="Rectangle-path" stroke="#5FA317" stroke-width="1.5" points="5 25.9948 10.3333333 25.9948 10.3333333 35.3281333 5 35.3281333"></polygon>
        <path d="M23.0709333,21.0544 C23.5769333,21.4948 24.3573333,21.8256 24.9205333,21.8256 C25.8217333,21.8256 26.5524,21.1868 26.5524,20.3989333 C26.5524,19.6109333 25.7722667,19.2212 24.9205333,18.9722667 C24.0377333,18.6956 23.2886667,18.3334667 23.2886667,17.5456 C23.2886667,16.7577333 24.0192,16.1189333 24.9205333,16.1189333 C25.5273333,16.1189333 26.0568,16.4085333 26.338,16.8382667" id="Shape" stroke="#5FA317" stroke-width="1.5"></path>
        <line x1="24.9205333" y1="15.3390667" x2="24.9205333" y2="16.1186667" id="Shape" stroke="#5FA317" stroke-width="1.5"></line>
        <line x1="24.9205333" y1="21.8256" x2="24.9205333" y2="22.6052" id="Shape" stroke="#5FA317" stroke-width="1.5"></line>
        <path d="M19.5484,12.1208 C19.9822667,12.4984 20.6512,12.782 21.1341333,12.782 C21.9068,12.782 22.5330667,12.2344 22.5330667,11.5588 C22.5330667,10.8832 21.8642667,10.5490667 21.1341333,10.3356 C20.3773333,10.0984 19.7352,9.788 19.7352,9.1124 C19.7352,8.4368 20.3616,7.8892 21.1341333,7.8892 C21.6544,7.8892 22.1082667,8.13746667 22.3493333,8.50586667" id="Shape" stroke="#5FA317" stroke-width="1.5"></path>
        <line x1="21.134" y1="7.22106667" x2="21.134" y2="7.88946667" id="Shape" stroke="#5FA317" stroke-width="1.5"></line>
        <line x1="21.134" y1="12.782" x2="21.134" y2="13.4504" id="Shape" stroke="#5FA317" stroke-width="1.5"></line>
    </g>
</svg>