<?xml version="1.0" encoding="UTF-8"?>
<svg width="31px" height="31px" viewBox="0 0 31 31" version="1.1" xmlns="http://www.w3.org/2000/svg" xmlns:xlink="http://www.w3.org/1999/xlink">
    <title>thin-0401_graph_growth_money_stock_inflation</title>
    <g id="Icons-/-Visual-Icons" stroke="none" stroke-width="1" fill="none" fill-rule="evenodd">
        <g id="Icons/Visual-Icons/-Graph-Growth-Money-Stock-Inflation" transform="translate(-1.000000, -1.000000)" stroke="#78BE20" stroke-width="1.5">
            <g id="thin-0401_graph_growth_money_stock_inflation" transform="translate(1.000000, 2.000000)">
                <g id="Group" transform="translate(0.000000, 0.250000)">
                    <polyline id="Shape" points="16.192375 3.836 19.353625 0.697875 22.514875 3.836"></polyline>
                    <path d="M2.83375,19.292875 C2.83375,19.292875 19.353375,18.7835 19.353375,3.71325 L19.353625,0.698" id="Shape"></path>
                    <circle id="Oval" cx="6.387625" cy="7.464875" r="5.51975"></circle>
                    <path d="M4.397,9.56075 C4.9325,10.026875 5.758375,10.377 6.3545,10.377 C7.30825,10.377 8.0815,9.701 8.0815,8.867 C8.0815,8.033 7.255875,7.6205 6.3545,7.357 C5.42025,7.06425 4.6275,6.681 4.6275,5.847 C4.6275,5.013 5.40075,4.337 6.3545,4.337 C6.99675,4.337 7.557125,4.6435 7.854625,5.098375" id="Shape"></path>
                    <line x1="6.3545" y1="3.511875" x2="6.3545" y2="4.337" id="Shape"></line>
                    <line x1="6.3545" y1="10.376875" x2="6.3545" y2="11.202125" id="Shape"></line>
                    <polygon id="Rectangle-path" points="26.939375 1.875 29.439375 1.875 29.439375 28.125 26.939375 28.125"></polygon>
                    <polygon id="Rectangle-path" points="20.689 13.12575 23.189 13.12575 23.189 28.125 20.689 28.125"></polygon>
                    <polygon id="Rectangle-path" points="14.438625 19.376125 16.938625 19.376125 16.938625 28.125 14.438625 28.125"></polygon>
                    <polygon id="Rectangle-path" points="8.18825 23.126375 10.68825 23.126375 10.68825 28.125 8.18825 28.125"></polygon>
                    <polygon id="Rectangle-path" points="1.93775 24.3765 4.43775 24.3765 4.43775 28.125125 1.93775 28.125125"></polygon>
                </g>
            </g>
        </g>
    </g>
</svg>