<?xml version="1.0" encoding="UTF-8"?>
<svg width="22px" height="22px" viewBox="0 0 22 22" version="1.1" xmlns="http://www.w3.org/2000/svg" xmlns:xlink="http://www.w3.org/1999/xlink">
    <title>instagram-hover</title>
    <g id="Page-3" stroke="none" stroke-width="1" fill="none" fill-rule="evenodd">
        <g id="instagram-hover" fill="#17252E" fill-rule="nonzero">
            <path d="M11.6913702,3.00060096 C13.2059615,3.00346154 13.5061538,3.01692308 14.2492308,3.04923077 C15.0923077,3.08615385 15.6769231,3.22153846 16.1815385,3.41846154 C16.7046154,3.62153846 17.1476923,3.89230769 17.5907692,4.33538462 C18.0338462,4.77846154 18.3046154,5.22153846 18.5076923,5.74461538 C18.7046154,6.24923077 18.84,6.82769231 18.8769231,7.67692308 C18.9110256,8.34923077 18.9219872,8.65899573 18.9250743,9.83365652 L18.9258053,10.2347837 C18.9258894,10.3069071 18.9259562,10.3817842 18.9260078,10.459594 L18.9260889,11.2241533 C18.9260452,11.3080075 18.9259793,11.38875 18.9258903,11.4665598 L18.9250712,11.8996581 C18.9213675,13.2355556 18.9076923,13.5415385 18.8769231,14.2492308 C18.84,15.0923077 18.7046154,15.6769231 18.5076923,16.1815385 C18.3046154,16.7046154 18.0338462,17.1476923 17.5907692,17.5907692 C17.1476923,18.0338462 16.7046154,18.3046154 16.1815385,18.5076923 C15.6769231,18.7046154 15.0984615,18.84 14.2492308,18.8769231 C13.5769231,18.9110256 13.2671581,18.9219872 12.0924973,18.9250743 L11.6913702,18.9258053 C11.6192468,18.9258894 11.5443697,18.9259562 11.4665598,18.9260078 L10.7020005,18.9260889 C10.6181464,18.9260452 10.5374038,18.9259793 10.459594,18.9258903 L10.0264957,18.9250712 C8.69059829,18.9213675 8.38461538,18.9076923 7.67692308,18.8769231 C6.83384615,18.84 6.24923077,18.7046154 5.74461538,18.5076923 C5.22153846,18.3046154 4.77846154,18.0338462 4.33538462,17.5907692 C3.89230769,17.1476923 3.62153846,16.7046154 3.41846154,16.1815385 C3.22153846,15.6769231 3.08615385,15.0984615 3.04923077,14.2492308 C3.01333333,13.5415385 3.00307692,13.2355556 3.00065527,11.8996581 L3.00060096,10.2347837 C3.00346154,8.72019231 3.01692308,8.42 3.04923077,7.67692308 C3.08615385,6.83384615 3.22153846,6.24923077 3.41846154,5.74461538 C3.62153846,5.22153846 3.89230769,4.77846154 4.33538462,4.33538462 C4.77846154,3.89230769 5.22153846,3.62153846 5.74461538,3.41846154 C6.24923077,3.22153846 6.82769231,3.08615385 7.67692308,3.04923077 C8.38461538,3.01333333 8.69059829,3.00307692 10.0264957,3.00065527 Z M11.4700781,4.42785213 L10.4438955,4.42797959 C8.78549949,4.4300189 8.50822742,4.4432107 7.73846154,4.47692308 C6.96307692,4.51384615 6.54461538,4.64307692 6.26153846,4.75384615 C5.88615385,4.90153846 5.62153846,5.07384615 5.34461538,5.35076923 C5.06769231,5.62769231 4.88923077,5.89846154 4.74769231,6.26769231 C4.63692308,6.54461538 4.50769231,6.96923077 4.47076923,7.74461538 C4.43331104,8.47237458 4.42377199,8.76273375 4.42192083,10.2220556 L4.42182575,11.4761045 C4.42386506,13.1345005 4.43705686,13.4117726 4.47076923,14.1815385 C4.50769231,14.9569231 4.63692308,15.3753846 4.74769231,15.6584615 C4.89538462,16.0338462 5.06769231,16.2984615 5.34461538,16.5753846 C5.62153846,16.8523077 5.89230769,17.0307692 6.26153846,17.1723077 C6.53846154,17.2830769 6.96307692,17.4123077 7.73846154,17.4492308 C8.47076923,17.4869231 8.75548077,17.4963462 10.2416346,17.498113 L11.4514352,17.498198 C13.1313248,17.4962393 13.4025641,17.4830769 14.1753846,17.4492308 C14.9507692,17.4123077 15.3692308,17.2830769 15.6523077,17.1723077 C16.0276923,17.0246154 16.2923077,16.8523077 16.5692308,16.5753846 C16.8461538,16.2984615 17.0246154,16.0276923 17.1661538,15.6584615 C17.2769231,15.3815385 17.4061538,14.9569231 17.4430769,14.1815385 C17.4767893,13.4173913 17.4899811,13.1354777 17.4920204,11.4762319 L17.4920204,10.4500494 C17.4899811,8.79165334 17.4767893,8.51438127 17.4430769,7.74461538 C17.4061538,6.96923077 17.2769231,6.55076923 17.1661538,6.26769231 C17.0184615,5.89230769 16.8461538,5.62769231 16.5692308,5.35076923 C16.2923077,5.07384615 16.0215385,4.89538462 15.6523077,4.75384615 C15.3753846,4.64307692 14.9507692,4.51384615 14.1753846,4.47692308 C13.5204013,4.4432107 13.2197121,4.43211284 12.1022784,4.42888089 L11.6979444,4.42807468 C11.6249783,4.42798212 11.5490898,4.42790878 11.4700781,4.42785213 Z M11,6.87692308 C13.2584615,6.87692308 15.0923077,8.71076923 15.0923077,10.9692308 C15.0923077,13.2276923 13.2584615,15.0615385 11,15.0615385 C8.74153846,15.0615385 6.90769231,13.2276923 6.90769231,10.9692308 C6.90769231,8.71076923 8.74153846,6.87692308 11,6.87692308 Z M11,8.31076923 C9.52923077,8.31076923 8.34153846,9.50461538 8.34153846,10.9692308 C8.34153846,12.44 9.53538462,13.6276923 11,13.6276923 C12.4646154,13.6276923 13.6584615,12.4338462 13.6584615,10.9692308 C13.6584615,9.49846154 12.4707692,8.31076923 11,8.31076923 Z M15.2523077,5.76307692 C15.7791024,5.76307692 16.2061538,6.19012839 16.2061538,6.71692308 C16.2061538,7.24371776 15.7791024,7.67076923 15.2523077,7.67076923 C14.725513,7.67076923 14.2984615,7.24371776 14.2984615,6.71692308 C14.2984615,6.19012839 14.725513,5.76307692 15.2523077,5.76307692 Z" id="instagram"></path>
        </g>
    </g>
</svg>