<?xml version="1.0" encoding="UTF-8"?>
<svg width="22px" height="22px" viewBox="0 0 22 22" version="1.1" xmlns="http://www.w3.org/2000/svg" xmlns:xlink="http://www.w3.org/1999/xlink">
    <title>linkedin-hover</title>
    <g id="Page-3" stroke="none" stroke-width="1" fill="none" fill-rule="evenodd">
        <g id="linkedin-hover" fill="#17252E" fill-rule="nonzero">
            <path d="M14.7213115,12.2488263 C14.7213115,11.7668208 14.6338807,11.4107993 14.4590164,11.1807512 C14.2841521,10.9507031 13.9562866,10.8356808 13.4754098,10.8356808 C12.885243,10.8356808 12.4699466,11.0109529 12.2295082,11.3615023 C11.9890698,11.7120518 11.8688525,12.2050046 11.8688525,12.8403756 L11.8688525,17.6384977 C11.8688525,17.7480444 11.8360659,17.8356804 11.7704918,17.9014085 C11.7049177,17.9671365 11.6174869,18 11.5081967,18 L9.01639344,18 C8.92896131,18 8.84699492,17.9671365 8.7704918,17.9014085 C8.69398869,17.8356804 8.6557377,17.7480444 8.6557377,17.6384977 L8.6557377,8.76525822 C8.6557377,8.67762085 8.69398869,8.59546204 8.7704918,8.51877934 C8.84699492,8.44209664 8.92896131,8.40375587 9.01639344,8.40375587 L11.442623,8.40375587 C11.5300551,8.40375587 11.6010926,8.42566488 11.6557377,8.46948357 C11.7103828,8.51330225 11.7486338,8.5790293 11.7704918,8.66666667 L11.7704918,8.83098592 C11.7923498,8.8748046 11.8032787,8.95148615 11.8032787,9.06103286 C12.4153036,8.46948061 13.2458964,8.17370892 14.295082,8.17370892 C15.4535577,8.17370892 16.3606525,8.46948061 17.0163934,9.06103286 C17.6721344,9.65258512 18,10.5179912 18,11.657277 L18,17.6384977 C18,17.7480444 17.961749,17.8356804 17.8852459,17.9014085 C17.8087428,17.9671365 17.7267764,18 17.6393443,18 L15.0819672,18 C14.9945351,18 14.9125687,17.9671365 14.8360656,17.9014085 C14.7595625,17.8356804 14.7213115,17.7480444 14.7213115,17.6384977 L14.7213115,12.2488263 Z M7.37704918,5.70892019 C7.37704918,6.16901638 7.21311639,6.56885589 6.8852459,6.9084507 C6.55737541,7.24804552 6.1584723,7.41784038 5.68852459,7.41784038 C5.21857689,7.41784038 4.81967377,7.24804552 4.49180328,6.9084507 C4.16393279,6.56885589 4,6.16353913 4,5.69248826 C4,5.22143739 4.16393279,4.82159789 4.49180328,4.49295775 C4.81967377,4.16431761 5.21857689,4 5.68852459,4 C6.1584723,4 6.55737541,4.16431761 6.8852459,4.49295775 C7.21311639,4.82159789 7.37704918,5.22691465 7.37704918,5.70892019 Z M7.31147541,8.76525822 L7.31147541,17.6384977 C7.31147541,17.7480444 7.27322443,17.8356804 7.19672131,17.9014085 C7.1202182,17.9671365 7.0382518,18 6.95081967,18 L4.45901639,18 C4.34972623,18 4.26229541,17.9671365 4.19672131,17.9014085 C4.13114721,17.8356804 4.09836066,17.7480444 4.09836066,17.6384977 L4.09836066,8.76525822 C4.09836066,8.67762085 4.13114721,8.59546204 4.19672131,8.51877934 C4.26229541,8.44209664 4.34972623,8.40375587 4.45901639,8.40375587 L6.95081967,8.40375587 C7.0382518,8.40375587 7.1202182,8.44209664 7.19672131,8.51877934 C7.27322443,8.59546204 7.31147541,8.67762085 7.31147541,8.76525822 Z" id="linkedin"></path>
        </g>
    </g>
</svg>