<?xml version="1.0" encoding="UTF-8"?>
<svg width="24px" height="24px" viewBox="0 0 24 24" version="1.1" xmlns="http://www.w3.org/2000/svg" xmlns:xlink="http://www.w3.org/1999/xlink">
    <title>4BB8D2FA-3271-43B9-9EED-012A3C07566C</title>
    <g id="Nav-rework" stroke="none" stroke-width="1" fill="none" fill-rule="evenodd">
        <g id="COZA-Personal---Nav-Rework---01" transform="translate(-1328.000000, -20.000000)" stroke="#004D36" stroke-width="1.5">
            <g id="Sign-in" transform="translate(1328.000000, 20.000000)">
                <g id="lock" transform="translate(5.000000, 2.000000)">
                    <path d="M1.75938607,8.56783891 C0.789369433,8.56783891 2.01061341e-14,9.34339947 2.01061341e-14,10.2957589 L0.778503435,18.2711745 C0.778503435,19.2246658 1.56809924,20 2.53788951,20 L11.5634586,20 C12.5334752,20 13.3232974,19.2248922 13.3232974,18.2711745 L14.1018008,10.2957589 C14.1018008,9.34339947 13.3119786,8.56783891 12.341962,8.56783891 L1.75938607,8.56783891 L1.75938607,8.56783891 Z" id="Shape"></path>
                    <path d="M2.50732889,8.56783891 L2.50732889,4.1913321 C2.50732889,1.88027029 4.54560889,0 7.05067403,0 C9.55709742,0 11.59334,1.88027029 11.59334,4.1913321 L11.59334,8.56783891" id="Shape"></path>
                    <line x1="7.04954216" y1="13.7246602" x2="7.04954216" y2="15.7717688" id="Shape"></line>
                </g>
            </g>
        </g>
    </g>
</svg>