<?xml version="1.0" encoding="UTF-8"?>
<svg width="24px" height="24px" viewBox="0 0 24 24" version="1.1" xmlns="http://www.w3.org/2000/svg" xmlns:xlink="http://www.w3.org/1999/xlink">
    <title>lock</title>
    <defs>
        <path d="M2.50732889,8.56783891 L2.50732889,4.1913321 C2.50732889,1.88027029 4.54560889,0 7.05067403,0 C9.55709742,0 11.59334,1.88027029 11.59334,4.1913321 L11.59334,8.56783891" id="path-1"></path>
    </defs>
    <g id="Page-1" stroke="none" stroke-width="1" fill="none" fill-rule="evenodd">
        <g id="Main-Navigation---Desktop---Login-Placement" transform="translate(-1127.000000, -20.000000)">
            <g id="Drop-down" transform="translate(1127.000000, 20.000000)">
                <g id="lock" transform="translate(5.000000, 2.000000)">
                    <path d="M2.01061341e-14,10.2957589 L0.778503435,18.2711745 C0.778503435,19.2246658 1.56809924,20 2.53788951,20 L11.5634586,20 C12.5334752,20 13.3232974,19.2248922 13.3232974,18.2711745 L14.1018008,10.2957589 C14.1018008,9.34339947 13.3119786,8.56783891 12.341962,8.56783891 L1.75938607,8.56783891 C0.789369433,8.56783891 2.01061341e-14,9.34339947 2.01061341e-14,10.2957589 Z" id="Shape" stroke="#006341" stroke-width="1.5" fill="#006341"></path>
                    <path d="M2.01061341e-14,10.2957589 L0.778503435,18.2711745 C0.778503435,19.2246658 1.56809924,20 2.53788951,20 L11.5634586,20 C12.5334752,20 13.3232974,19.2248922 13.3232974,18.2711745 L14.1018008,10.2957589 C14.1018008,9.34339947 13.3119786,8.56783891 12.341962,8.56783891 L1.75938607,8.56783891 C0.789369433,8.56783891 2.01061341e-14,9.34339947 2.01061341e-14,10.2957589 Z" id="Shape" stroke="#17252E" stroke-width="1.5" fill="#17252E"></path>
                    <g id="Shape" stroke="#17252E">
                        <use stroke-width="1.5" xlink:href="#path-1"></use>
                        <use stroke-width="1" xlink:href="#path-1"></use>
                    </g>
                    <line x1="7.04954216" y1="13.7246602" x2="7.04954216" y2="15.7717688" id="Shape" stroke="#FFFFFF" stroke-width="1.5"></line>
                </g>
            </g>
        </g>
    </g>
</svg>