<?xml version="1.0" encoding="UTF-8"?>
<svg width="29px" height="29px" viewBox="0 0 29 29" version="1.1" xmlns="http://www.w3.org/2000/svg" xmlns:xlink="http://www.w3.org/1999/xlink">
    <title>thin-0421_money_credit_card_coins_payment</title>
    <g id="Icons-/-Visual-Icons" stroke="none" stroke-width="1" fill="none" fill-rule="evenodd">
        <g id="Icons/Visual-Icons/-Money-Credit-Card-Coins-Payment" transform="translate(-1.000000, -2.000000)" stroke="#78BE20" stroke-width="1.5">
            <g id="thin-0421_money_credit_card_coins_payment" transform="translate(2.000000, 2.000000)">
                <g id="Group" transform="translate(0.200000, 0.200000)">
                    <path d="M20.44176,21.3642 L21.01404,23.65044 C21.15828,24.4242 20.64816,25.1682 19.87416,25.31244 L5.8908,27.9198 C5.11716,28.06404 4.37292,27.55404 4.22856,26.78016 L0.18024,5.06808 C0.036,4.29432 0.54636,3.55032 1.32,3.40608 L15.30348,0.79884 C16.07748,0.65448 16.82148,1.1646 16.96572,1.93848 L17.2668,3.42912" id="Shape"></path>
                    <polygon id="Rectangle-path" transform="translate(7.249980, 14.983169) rotate(259.438417) translate(-7.249980, -14.983169) " points="-5.21866726 12.9444028 19.7186263 12.9444028 19.7186263 17.0219351 -5.21866726 17.0219351"></polygon>
                    <path d="M17.6562,13.38804 C15.05244,13.22304 12.93564,11.05896 12.93564,8.41356 C12.93564,5.66064 15.16728,3.429 17.9202,3.429 C20.67312,3.429 22.90476,5.66064 22.90476,8.41356 C22.90476,9.56604 22.51368,10.69308 21.85692,11.53728" id="Shape"></path>
                    <circle id="Oval" cx="21.54696" cy="16.50336" r="4.98456"></circle>
                    <path d="M20.07864,18.2952 C20.50548,18.66672 21.1638,18.94584 21.63888,18.94584 C22.39908,18.94584 23.0154,18.40704 23.0154,17.74236 C23.0154,17.07768 22.35732,16.74888 21.63888,16.53888 C20.89428,16.30548 20.26236,16.00008 20.26236,15.3354 C20.26236,14.67072 20.87868,14.13192 21.63888,14.13192 C22.1508,14.13192 22.59744,14.37624 22.83456,14.73876" id="Shape"></path>
                    <line x1="21.63888" y1="13.47396" x2="21.63888" y2="14.13168" id="Shape"></line>
                    <line x1="21.63888" y1="18.9984" x2="21.63888" y2="19.656" id="Shape"></line>
                    <path d="M16.57728,9.90492 C16.96764,10.24476 17.56968,10.49988 18.0042,10.49988 C18.69948,10.49988 19.26312,10.00704 19.26312,9.39924 C19.26312,8.79144 18.66132,8.4906 18.0042,8.2986 C17.3232,8.08512 16.74528,7.80576 16.74528,7.19796 C16.74528,6.59016 17.30892,6.09732 18.0042,6.09732 C18.47232,6.09732 18.8808,6.32076 19.09776,6.65232" id="Shape"></path>
                    <line x1="18.0042" y1="5.49588" x2="18.0042" y2="6.09732" id="Shape"></line>
                    <line x1="18.0042" y1="10.49988" x2="18.0042" y2="11.10144" id="Shape"></line>
                </g>
            </g>
        </g>
    </g>
</svg>