<?xml version="1.0" encoding="UTF-8"?>
<svg width="38px" height="38px" viewBox="0 0 38 38" version="1.1" xmlns="http://www.w3.org/2000/svg" xmlns:xlink="http://www.w3.org/1999/xlink">
    <title>logo</title>
    <g id="FullScreen-" stroke="none" stroke-width="1" fill="none" fill-rule="evenodd">
        <g id="Main-Navigation---Fullscreen-Hamburger-00" transform="translate(-105.000000, -13.000000)">
            <g id="Nedbank-logo/80px" transform="translate(105.000000, 13.000000)">
                <polygon id="Path-2" fill="#006341" points="1.44957659 7.73188823 1.44957659 30.8118987 10.8637662 36.9407923 19.4292065 31.3223245 28.0003095 36.9407923 37.123033 30.8118987 37.123033 7.72539176 28.0003095 1.67105812 19.4292065 7.18093395 10.8637662 1.67105812"></polygon>
                <path d="M10.783687,0.74810741 L19.2711286,6.34849981 L27.8014108,0.750280281 L37.9167985,7.39509905 L37.9167985,31.2673398 L27.8014108,37.9143314 L19.2711286,32.3141201 L10.785349,37.91578 L0.664236943,31.2675208 L0.664236943,7.41356845 L10.783687,0.74810741 Z M27.8660043,2.56564108 L19.401645,8.16820634 L10.9374703,2.56564108 L2.26167748,8.16820634 L2.26167748,30.3704151 L10.9374703,35.9727993 L19.401645,30.3704151 L27.8660043,35.9727993 L36.3303636,30.3704151 L36.3303636,8.16820634 L27.8660043,2.56564108 Z" id="Combined-Shape" fill="#FFFFFF"></path>
                <path d="M10.9374703,24.7680309 L17.7088839,29.3328694 L10.9374703,33.8978891 L10.9374703,24.7680309 Z M27.8660043,15.8455007 L27.8660043,4.64073231 L34.4257996,8.99806176 L34.4257996,29.1253603 L3.95443854,9.20557089 L10.9374703,4.64073231 L27.8660043,15.8455007 Z" id="Fill-14" fill="#FFFFFF"></path>
            </g>
        </g>
    </g>
</svg>