<?xml version="1.0" encoding="utf-8"?>
<!-- Generator: Adobe Illustrator 27.3.1, SVG Export Plug-In . SVG Version: 6.00 Build 0)  -->
<svg version="1.1" id="Layer_1" xmlns="http://www.w3.org/2000/svg" xmlns:xlink="http://www.w3.org/1999/xlink" x="0px" y="0px"
	 viewBox="0 0 100 14" style="enable-background:new 0 0 100 14;" xml:space="preserve">
<style type="text/css">
	.st0{fill-rule:evenodd;clip-rule:evenodd;fill:#009639;}
	.st1{fill-rule:evenodd;clip-rule:evenodd;fill:#006341;}
</style>
<g id="Page-1">
	<g id="Footer---Desktop" transform="translate(-106.000000, -706.000000)">
		<g id="Footer" transform="translate(0.000000, 250.000000)">
			<g id="Disclaimer---logo---social" transform="translate(105.000000, 400.000000)">
				<g id="Combined-Shape" transform="translate(1.000000, 56.000000)">
					<g>
						<path id="path-1" class="st0" d="M76,0l5.3,8V0h3.5v13.2h-4.2l-5.3-8v8h-3.5V0H76z M65.7,0l5,13.2h-3.7l-1-2.6h-5.6l-1,2.6H56
							L60.9,0H65.7z M90.8,0v5.3L95.3,0h4.4l-5.2,6.2l5.5,7.1h-4.4l-4.7-6v6h-3.5V0H90.8z M4.2,0l5.3,8V0h3.5v13.2H8.7l-5.3-8v8H0V0
							H4.2z M50.6,0c3,0,4.5,1,4.5,3.5c0,1.5-1,2.6-2.4,2.7c1.6,0.2,2.9,1.1,2.9,3.4c0,2.7-1.5,3.6-4.7,3.6l0,0h-7.5V0H50.6z
							 M35.1,0c4.4,0,6.6,1.9,6.6,6.6c0,4.6-2.1,6.6-6.6,6.6l0,0h-6.5V0H35.1z M26.1,0v2.8H19v2.4h5.9V8H19v2.5h7.1v2.8H15.5V0H26.1
							z M50.2,8h-3.3v2.5h3.3c1.2,0,1.5-0.5,1.5-1.2C51.7,8.5,51.3,8,50.2,8L50.2,8z M34.9,2.8h-2.7v7.7h2.7c1.7,0,3-0.8,3-3.8
							C37.9,3.6,36.5,2.8,34.9,2.8L34.9,2.8z M63.3,3.4h-0.2L61.4,8h3.7L63.3,3.4z M49.8,2.8h-2.9v2.4h2.9c1.2,0,1.5-0.5,1.5-1.2
							S51,2.8,49.8,2.8L49.8,2.8z"/>
					</g>
					<g>
						<path id="path-1_00000068668918386667284350000016363772101714834102_" class="st1" d="M76,0l5.3,8V0h3.5v13.2h-4.2l-5.3-8v8
							h-3.5V0H76z M65.7,0l5,13.2h-3.7l-1-2.6h-5.6l-1,2.6H56L60.9,0H65.7z M90.8,0v5.3L95.3,0h4.4l-5.2,6.2l5.5,7.1h-4.4l-4.7-6v6
							h-3.5V0H90.8z M4.2,0l5.3,8V0h3.5v13.2H8.7l-5.3-8v8H0V0H4.2z M50.6,0c3,0,4.5,1,4.5,3.5c0,1.5-1,2.6-2.4,2.7
							c1.6,0.2,2.9,1.1,2.9,3.4c0,2.7-1.5,3.6-4.7,3.6l0,0h-7.5V0H50.6z M35.1,0c4.4,0,6.6,1.9,6.6,6.6c0,4.6-2.1,6.6-6.6,6.6l0,0
							h-6.5V0H35.1z M26.1,0v2.8H19v2.4h5.9V8H19v2.5h7.1v2.8H15.5V0H26.1z M50.2,8h-3.3v2.5h3.3c1.2,0,1.5-0.5,1.5-1.2
							C51.7,8.5,51.3,8,50.2,8L50.2,8z M34.9,2.8h-2.7v7.7h2.7c1.7,0,3-0.8,3-3.8C37.9,3.6,36.5,2.8,34.9,2.8L34.9,2.8z M63.3,3.4
							h-0.2L61.4,8h3.7L63.3,3.4z M49.8,2.8h-2.9v2.4h2.9c1.2,0,1.5-0.5,1.5-1.2S51,2.8,49.8,2.8L49.8,2.8z"/>
					</g>
				</g>
			</g>
		</g>
	</g>
</g>
</svg>
