<?xml version="1.0" encoding="UTF-8"?>
<svg width="48px" height="48px" viewBox="0 0 48 48" version="1.1" xmlns="http://www.w3.org/2000/svg" xmlns:xlink="http://www.w3.org/1999/xlink">
    <title>phone-in-hand</title>
    <g id="Page-1" stroke="none" stroke-width="1" fill="none" fill-rule="evenodd">
        <g id="phone-in-hand">
            <g id="Group" transform="translate(3.158643, 1.000000)" stroke="#5FA317" stroke-width="1.5">
                <g transform="translate(31.841357, 1.323205)" id="Shape">
                    <path d="M0.0422,10.1387952 L5.2686,5.63579522 C6.5666,4.65339522 6.7066,2.57079522 5.7554,1.23059522 L5.7554,1.23059522 C4.8042,-0.109804777 2.981,-0.400204777 1.6828,0.582195223 L0,1.99059522"></path>
                    <path d="M0,19.4155952 L7.8084,12.8809952 C9.127,11.9275952 9.3104,9.84919522 8.3878,8.48799522 L8.3878,8.48799522 C7.465,7.12619522 5.648,6.79519522 4.3296,7.74819522 L0,11.0801952"></path>
                    <path d="M0.0174,34.8779952 C3.401,32.8887952 6.4606,30.4487952 6.4606,30.4487952 C7.8424,29.4111952 8.961,28.2289952 8.6056,26.6083952 C8.2496,24.9875952 6.6308,24.0673952 5.0612,24.4345952 L8.467,22.1719952 C10.024,20.9911952 10.3766,19.3951952 9.6536,17.9107952 L9.6536,17.9107952 C8.7854,16.3975952 7.1788,15.8281952 5.741,16.5751952 L0.0176,20.4703952"></path>
                    <line x1="0.0174" y1="27.7857952" x2="5.0606" y2="24.4349952"></line>
                </g>
                <path d="M9.84135656,21.5774 C9.84135656,21.5774 8.90375656,3.8832 2.80155656,6.2288 C-0.500643441,7.4982 4.14835656,20.9734 0.903556559,29.0472 C-1.52304344,35.0856 0.600156559,44.2176 11.4247566,45.617 C14.4903566,46.0134 25.6307566,40 25.6307566,40" id="Shape"></path>
                <path d="M28.2817566,0 L13.2683566,0 C11.3907566,0 9.84135656,1.6384 9.84135656,3.576 L9.84135656,36.4962 C9.84135656,38.435 11.3907566,40 13.2683566,40 L28.2817566,40 C30.1593566,40 31.8413566,38.4348 31.8413566,36.4962 L31.8413566,3.576 C31.8413566,1.6384 30.1593566,0 28.2817566,0 L28.2817566,0 Z" id="Shape"></path>
                <line x1="9.84135656" y1="6" x2="31.6777566" y2="6" id="Shape"></line>
                <line x1="9.84135656" y1="34.0018" x2="31.6777566" y2="34.0018" id="Shape"></line>
            </g>
            <rect id="Rectangle-path" x="0" y="0" width="48" height="48"></rect>
        </g>
    </g>
</svg>