<?xml version="1.0" encoding="UTF-8"?>
<svg width="40px" height="40px" viewBox="0 0 40 40" version="1.1" xmlns="http://www.w3.org/2000/svg" xmlns:xlink="http://www.w3.org/1999/xlink">
    <title>sa-id</title>
    <g id="sa-id" stroke="none" stroke-width="1" fill="none" fill-rule="evenodd">
        <path d="M17.4081135,23.6158865 L17.4081135,22.2546271 C18.2884232,21.3336877 18.9827613,20.0492284 19.3935174,18.5454348 C20.3815123,17.8360671 20.625951,16.3745548 19.8090632,15.3469213 L19.8090632,12.2995303 C19.8090632,9.15353806 18.0961755,7 14.1802013,7 C10.3653058,7 8.54919226,9.15353806 8.54919226,12.2995303 L8.54919226,15.3480774 C7.73362581,16.37472 7.97872516,17.8350761 8.96473806,18.5449394 C9.37565935,20.0492284 10.0704929,21.3336877 10.9511329,22.2547923 L10.9511329,23.6160516 C10.5563974,24.9122374 5.84451097,26.9952516 1.60102194,28.6734555 C1.23931871,28.8169806 1,29.1768671 1,29.5790348 L1,32.9836697 C1,33.5182968 1.41802323,33.9528361 1.93365677,33.9528361 L26.4254245,33.9528361 C26.9408929,33.9528361 27.3590813,33.5182968 27.3590813,32.9836697 L27.3590813,29.5790348 C27.3592465,29.1767019 27.1197626,28.8158245 26.7582245,28.6732903 C22.5147355,26.9962426 17.8040052,24.9137239 17.4081135,23.6158865 Z" id="Shape" stroke="#5FA317" stroke-width="1.5"></path>
        <path d="M30.8083097,33.952671 L38.0377497,33.952671 C38.5258013,33.952671 38.9216929,33.5559535 38.9216929,33.0677368 L38.9216929,29.959071 C38.9216929,29.5919174 38.6950916,29.2624206 38.3527123,29.1322735 C34.3351639,27.6008981 29.8751484,27.6813316 29.5002323,26.4964645 L29.5002323,24.7143742 C33.5123303,24.7034735 35.1041548,23.4246297 35.1041548,23.4246297 C33.4299148,22.4865135 32.8990865,15.9325832 32.8990865,15.9325832 C32.8990865,10.4766452 26.73312,7.20331355 22.6949265,10.45088" id="Shape" stroke="#5FA317" stroke-width="1.5"></path>
    </g>
</svg>