<?xml version="1.0" encoding="UTF-8"?>
<svg width="40px" height="40px" viewBox="0 0 40 40" version="1.1" xmlns="http://www.w3.org/2000/svg" xmlns:xlink="http://www.w3.org/1999/xlink">
    <title>start-application</title>
    <g id="start-application" stroke="none" stroke-width="1" fill="none" fill-rule="evenodd">
        <path d="M35.2425333,10.8438667 C35.4022667,10.6825333 35.4952,10.4636 35.4950667,10.2337333 C35.4950667,10.0050667 35.4018667,9.786 35.2424,9.62373333 L30.8706667,5.2532 C30.702,5.08493333 30.4809333,5.00013333 30.2594667,5 C30.0384,5.0004 29.8173333,5.0844 29.6498667,5.2536 C29.6498667,5.2536 13.3753333,21.5273333 13.3644,21.5381333 C13.1634667,21.7390667 10.3234667,28.8918667 10.2172,29.1553333 C10.0861333,29.4768 10.1610667,29.8432 10.4066667,30.0884 C10.6494667,30.3318667 11.0170667,30.4084 11.3398667,30.2784 C11.5921333,30.1765333 18.7661333,27.3245333 18.9556,27.1293333 C19.0741333,27.0105333 35.1236,10.9614667 35.2425333,10.8438667 L35.2425333,10.8438667 Z" id="Shape" stroke="#78BE20" stroke-width="1.5"></path>
        <line x1="31.5036" y1="10.5572" x2="16.9329333" y2="25.1104" id="Shape" stroke="#78BE20" stroke-width="1.5"></line>
        <line x1="13.3644" y1="21.5381333" x2="18.9554667" y2="27.1292" id="Shape" stroke="#78BE20" stroke-width="1.5"></line>
        <line x1="10.7338667" y1="27.8745333" x2="12.626" y2="29.7666667" id="Shape" stroke="#78BE20" stroke-width="1.5"></line>
        <path d="M29,21.3582667 L29,33.3582667 C29,34.5365333 28.6408,35.3582667 27.4625333,35.3582667 L7,35.3582667 C5.82173333,35.3582667 5,34.5365333 5,33.3582667 L5,13.0345333 C5,11.7848 5.88906667,11.3582667 7.1388,11.3582667 L19,11.3582667" id="Shape" stroke="#78BE20" stroke-width="1.5"></path>
    </g>
</svg>