<?xml version="1.0" encoding="UTF-8"?>
<svg width="40px" height="40px" viewBox="0 0 40 40" version="1.1" xmlns="http://www.w3.org/2000/svg" xmlns:xlink="http://www.w3.org/1999/xlink">
    <title>submit-docs</title>
    <g id="submit-docs" stroke="none" stroke-width="1" fill="none" fill-rule="evenodd">
        <polyline id="Shape" stroke="#78BE20" stroke-width="1.5" points="29.8064516 4 29.8064516 9.50537634 35.311828 9.50537634"></polyline>
        <path d="M12.2580645,15.6870882 L12.2580645,5.1087828 C12.2580645,4.50814624 12.7406108,4 13.3415226,4 L30.1504,4 C30.436129,4 30.5689462,4.12304516 30.7720946,4.32330323 L35.3310968,8.82215914 C35.5379613,9.02627097 35.6557763,9.2144172 35.6557763,9.50537634 L35.6557763,34.5549763 C35.6557763,35.1558882 35.1685505,35.655914 34.5664,35.655914 L13.3415226,35.655914 C12.7406108,35.655914 12.2580645,35.1558882 12.2580645,34.5549763 L12.2580645,25.3861849" id="Shape" stroke="#78BE20" stroke-width="1.5"></path>
        <line x1="22.1465462" y1="19.483871" x2="4" y2="19.483871" id="Shape" stroke="#78BE20" stroke-width="1.5"></line>
        <polyline id="Shape" stroke="#78BE20" stroke-width="1.5" points="29.8064516 4 29.8064516 9.50537634 35.311828 9.50537634"></polyline>
        <path d="M12.2580645,15.6870882 L12.2580645,5.1087828 C12.2580645,4.50814624 12.7406108,4 13.3415226,4 L30.1504,4 C30.436129,4 30.5689462,4.12304516 30.7720946,4.32330323 L35.3310968,8.82215914 C35.5379613,9.02627097 35.6557763,9.2144172 35.6557763,9.50537634 L35.6557763,34.5549763 C35.6557763,35.1558882 35.1685505,35.655914 34.5664,35.655914 L13.3415226,35.655914 C12.7406108,35.655914 12.2580645,35.1558882 12.2580645,34.5549763 L12.2580645,25.3861849" id="Shape" stroke="#78BE20" stroke-width="1.5"></path>
        <line x1="22.1465462" y1="19.483871" x2="4" y2="19.483871" id="Shape" stroke="#78BE20" stroke-width="1.5"></line>
        <polyline id="Shape" stroke="#78BE20" stroke-width="1.5" points="17.5 14.9 21.8675527 19.455286 17.5 24.0107097"></polyline>
    </g>
</svg>