<?xml version="1.0" encoding="UTF-8"?>
<svg width="12px" height="12px" viewBox="0 0 12 12" version="1.1" xmlns="http://www.w3.org/2000/svg" xmlns:xlink="http://www.w3.org/1999/xlink">
    <title>tooltip icon: on/off</title>
    <g id="Page-1" stroke="none" stroke-width="1" fill="none" fill-rule="evenodd">
        <g id="Calculator---Repaymant---Desktop" transform="translate(-435.000000, -771.000000)" fill="#17252E" fill-rule="nonzero">
            <g id="Group-5" transform="translate(211.000000, 765.000000)">
                <g id="tooltip-icon:-on/off" transform="translate(224.000000, 6.000000)">
                    <path d="M6,8.95 C6.30375661,8.95 6.55,9.19624339 6.55,9.5 C6.55,9.80375661 6.30375661,10.05 6,10.05 C5.69624339,10.05 5.45,9.80375661 5.45,9.5 C5.45,9.19624339 5.69624339,8.95 6,8.95 Z M6,2 C7.38071187,2 8.5,3.11928813 8.5,4.5 C8.5,5.70947896 7.64112016,6.71835578 6.5,6.94999094 L6.5,8.5 L5.5,8.5 L5.5,6 L6,6 C6.82842712,6 7.5,5.32842712 7.5,4.5 C7.5,3.67157288 6.82842712,3 6,3 C5.17157288,3 4.5,3.67157288 4.5,4.5 L3.5,4.5 C3.5,3.11928813 4.61928813,2 6,2 Z M6,11 C8.76142375,11 11,8.76142375 11,6 C11,3.23857625 8.76142375,1 6,1 C3.23857625,1 1,3.23857625 1,6 C1,8.76142375 3.23857625,11 6,11 Z M6,12 C2.6862915,12 0,9.3137085 0,6 C0,2.6862915 2.6862915,0 6,0 C9.3137085,0 12,2.6862915 12,6 C12,9.3137085 9.3137085,12 6,12 Z" id="colour"></path>
                </g>
            </g>
        </g>
    </g>
</svg>