<?xml version="1.0" encoding="UTF-8"?>
<svg width="22px" height="22px" viewBox="0 0 22 22" version="1.1" xmlns="http://www.w3.org/2000/svg" xmlns:xlink="http://www.w3.org/1999/xlink">
    <title>twitter-hover</title>
    <g id="Page-3" stroke="none" stroke-width="1" fill="none" fill-rule="evenodd">
        <g id="twitter-hover" fill="#17252E" fill-rule="nonzero">
            <path d="M18.1451991,7.47976879 L18.1451991,7.92485549 C18.1451991,9.13873439 17.9133513,10.3323641 17.4496487,11.5057803 C16.9859462,12.6791966 16.3255312,13.7514402 15.4683841,14.7225434 C14.6112369,15.6936465 13.5011778,16.4826559 12.1381733,17.0895954 C10.7751688,17.6965348 9.27869667,18 7.64871194,18 C5.59717944,18 3.71429429,17.4739937 2,16.4219653 C2.28103185,16.4489404 2.57611087,16.4624277 2.8852459,16.4624277 C4.59954019,16.4624277 6.1311408,15.9633961 7.48009368,14.9653179 C6.66510131,14.9383428 5.94145515,14.6955707 5.30913349,14.2369942 C4.67681183,13.7784177 4.24824468,13.1984621 4.0234192,12.4971098 C4.24824468,12.55106 4.47306679,12.5780347 4.69789227,12.5780347 C5.03513049,12.5780347 5.35831227,12.5240853 5.66744731,12.416185 C4.82435176,12.2543345 4.12178267,11.8497142 3.55971897,11.2023121 C2.99765527,10.5549101 2.71662763,9.8131063 2.71662763,8.97687861 L2.71662763,8.93641618 C3.25058815,9.20616705 3.81264342,9.3545278 4.4028103,9.38150289 C3.30678609,8.65317555 2.7587822,7.66859965 2.7587822,6.42774566 C2.7587822,5.78034358 2.92739878,5.18690058 3.264637,4.64739884 C4.19204211,5.72640231 5.30912696,6.58959214 6.61592506,7.23699422 C7.92272316,7.8843963 9.33488703,8.24855451 10.852459,8.32947977 C10.7962526,8.0597289 10.7681499,7.78998208 10.7681499,7.52023121 C10.7681499,6.54912809 11.1264601,5.71965662 11.8430913,5.03179191 C12.5597226,4.3439272 13.4238825,4 14.4355972,4 C15.5035182,4 16.4028067,4.36415821 17.1334895,5.09248555 C17.976585,4.93063503 18.7634624,4.64740087 19.4941452,4.24277457 C19.2131133,5.07900225 18.6651095,5.72639462 17.8501171,6.1849711 C18.6089031,6.10404584 19.3255236,5.9287104 20,5.65895954 C19.4941427,6.36031179 18.8758819,6.96724214 18.1451991,7.47976879 Z" id="twitter"></path>
        </g>
    </g>
</svg>