<?xml version="1.0" encoding="UTF-8"?>
<svg width="32px" height="32px" viewBox="0 0 32 32" version="1.1" xmlns="http://www.w3.org/2000/svg" xmlns:xlink="http://www.w3.org/1999/xlink">
    <title>thin-0326_computer_screen_users_profile</title>
    <g id="Icons-/-Visual-Icons" stroke="none" stroke-width="1" fill="none" fill-rule="evenodd">
        <g id="Icons/Visual-Icons/Computer-Desktop-Screen-Users-Profile" stroke="#78BE20" stroke-width="1.5">
            <g id="Group" transform="translate(1.000000, 1.000000)">
                <path d="M17.881125,12.411 C16.2775,11.78725 14.49725,11.012625 14.347625,10.53 L14.347625,10.02375 C14.68025,9.68125 14.942625,9.2035 15.098,8.644125 C15.471375,8.38025 15.56375,7.83675 15.255,7.4545 L15.255,6.321 C15.255,5.150875 14.607625,4.349875 13.12775,4.349875 C11.686125,4.349875 10.99975,5.150875 10.99975,6.321 L10.99975,7.454875 C10.69225,7.836 10.7835,8.379375 11.156875,8.643875 C11.312125,9.203375 11.57475,9.681125 11.9075,10.02375 L11.9075,10.53 C11.758375,11.012125 9.97775,11.786875 8.374125,12.411 C8.2375,12.464375 8.147,12.59825 8.147,12.747875 L8.147,14.014125 C8.147,14.213 8.305,14.374625 8.499875,14.374625 L17.755375,14.374625 C17.95025,14.374625 18.10825,14.213 18.10825,14.014125 L18.10825,12.747875 C18.10825,12.59825 18.01775,12.464 17.881125,12.411 L17.881125,12.411 Z" id="Shape"></path>
                <path d="M20.354375,14.374625 L22.825,14.374625 C22.97575,14.374625 23.098125,14.253625 23.098125,14.104625 L23.098125,13.156125 C23.098125,13.044125 23.028125,12.943625 22.922375,12.903875 C21.68125,12.436625 20.3035,11.8565 20.187625,11.495 L20.187625,11.11575 C20.445125,10.859125 20.648125,10.501375 20.768375,10.082375 C20.928125,9.973125 20.889875,8.342375 20.889875,8.342375 C20.889875,7.466 20.388875,6.866 19.2435,6.866 C18.12775,6.866 17.596625,7.465875 17.596625,8.342375 C17.596625,8.342375 17.558375,9.972625 17.718125,10.08225" id="Shape"></path>
                <path d="M10.40025,25.21575 L9.8,28.920375 C9.8,29.191125 10.068875,29.41025 10.40025,29.41025 L19.621125,29.41025 C19.9525,29.41025 20.221375,29.19125 20.221375,28.920375 L19.62,25.21575" id="Shape"></path>
                <path d="M27.35425,0.625 L2.665875,0.625 C1.53,0.625 0.637,1.5285 0.637,2.66375 L0.637,19.8275 C0.637,20.963375 1.53,21.874875 2.665875,21.874875 L27.35425,21.874875 C28.49125,21.874875 29.387,20.963375 29.387,19.8275 L29.387,2.66375 C29.387,1.5285 28.491375,0.625 27.35425,0.625 L27.35425,0.625 Z" id="Shape"></path>
                <line x1="0.6385" y1="18.125" x2="29.387" y2="18.125" id="Shape"></line>
            </g>
        </g>
    </g>
</svg>