<?xml version="1.0" encoding="UTF-8"?>
<svg width="22px" height="22px" viewBox="0 0 22 22" version="1.1" xmlns="http://www.w3.org/2000/svg" xmlns:xlink="http://www.w3.org/1999/xlink">
    <title>nedbank-youtube</title>
    <g id="Page-3" stroke="none" stroke-width="1" fill="none" fill-rule="evenodd">
        <g id="youtube-hover" fill="#17252E" fill-rule="nonzero">
            <path d="M19.7775176,7.79194631 C19.9258399,8.80984849 20,9.81319416 20,10.8020134 L20,12.1979866 L19.7775176,15.2080537 C19.6588597,16.0514584 19.4067154,16.6621905 19.0210773,17.0402685 C18.6057747,17.4474293 17.9828301,17.7091717 17.1522248,17.8255034 C16.3512841,17.8836692 15.3946191,17.9272929 14.2822014,17.9563758 C13.1697837,17.9854588 13.2576148,18 12.5456674,18 L11.4777518,18 C8.18499525,17.9709171 6.03435321,17.9127521 5.02576112,17.8255034 L4.66978923,17.7818792 C4.43247344,17.7527963 4.23965726,17.7237138 4.09133489,17.6946309 C3.94301253,17.665548 3.75761235,17.5928417 3.53512881,17.4765101 C3.31264526,17.3601784 3.11982907,17.214766 2.95667447,17.0402685 C2.79351987,16.8657709 2.64519973,16.6258405 2.5117096,16.3204698 C2.37821947,16.0150991 2.2966434,15.7460862 2.26697892,15.5134228 L2.17798595,15.2080537 C2.05932806,14.1901515 2,13.1868058 2,12.1979866 L2,10.8020134 L2.17798595,7.79194631 C2.29664384,6.94854164 2.54878808,6.3378095 2.93442623,5.95973154 C3.34972885,5.52348775 3.98750546,5.2617454 4.84777518,5.17449664 C5.64871595,5.11633081 6.59796485,5.07270708 7.69555035,5.04362416 C8.79313585,5.01454124 9.69788871,5 10.4098361,5 L11.4777518,5 C14.1475543,5 15.3723564,5.05816497 17.1522248,5.17449664 C17.9828301,5.2617454 18.6057747,5.52348775 19.0210773,5.95973154 C19.1397352,6.07606322 19.2435593,6.21420502 19.3325527,6.37416107 C19.4215461,6.53411713 19.4957062,6.69407079 19.5550351,6.85402685 C19.6143641,7.0139829 19.6588601,7.16666594 19.6885246,7.31208054 C19.7181891,7.45749513 19.7478531,7.57382507 19.7775176,7.66107383 L19.7775176,7.79194631 Z M13.3913043,11.7916667 L14,11.5 L9,9 L9,14 L13.3913043,11.7916667 Z" id="youtube"></path>
        </g>
    </g>
</svg>