<svg width="30" height="16" viewBox="0 0 30 16" fill="none" xmlns="http://www.w3.org/2000/svg">
    <path d="M1.65613 9C1.10384 9 0.656128 8.55228 0.656128 8C0.656128 7.44772 1.10384 7 1.65613 7L1.65613 9ZM29.3632 7.29289C29.7538 7.68342 29.7538 8.31658 29.3632 8.70711L22.9993 15.0711C22.6088 15.4616 21.9756 15.4616 21.5851 15.0711C21.1945 14.6805 21.1945 14.0474 21.5851 13.6569L27.2419 8L21.5851 2.34315C21.1945 1.95262 21.1945 1.31946 21.5851 0.928932C21.9756 0.538408 22.6088 0.538408 22.9993 0.928932L29.3632 7.29289ZM1.65613 7L28.6561 7V9L1.65613 9L1.65613 7Z"
          fill="#C8C8C6"/>
</svg>